<svg xmlns="http://www.w3.org/2000/svg" viewBox="0 0 1024 1024" role="img" aria-label="Airtable - Sheet Port app icon">
  <defs>
    <linearGradient id="bg" x1="0" x2="0" y1="0" y2="1">
      <stop offset="0" stop-color="#0e5b53"/>
      <stop offset="1" stop-color="#0c2d4a"/>
    </linearGradient>
    <filter id="shadow" x="-20%" y="-20%" width="140%" height="140%">
      <feDropShadow dx="0" dy="18" stdDeviation="14" flood-color="#000" flood-opacity=".35"/>
    </filter>
  </defs>
  <rect x="56" y="56" width="912" height="912" rx="220" fill="url(#bg)"/>
  <rect x="188" y="218" width="648" height="588" rx="92" fill="#ecfdf5" opacity=".14" stroke="#a7f3d0" stroke-opacity=".36" stroke-width="10"/>
  <g stroke="#a7f3d0" stroke-linecap="round" stroke-opacity=".28" stroke-width="9">
    <path d="M350 258v508M512 258v508M674 258v508"/>
    <path d="M238 384h548M238 512h548M238 640h548"/>
  </g>
  <g filter="url(#shadow)">
    <path d="M330 746 512 286l182 460" fill="none" stroke="#f8fafc" stroke-linecap="round" stroke-linejoin="round" stroke-width="76"/>
    <path d="M414 572h196" fill="none" stroke="#f8fafc" stroke-linecap="round" stroke-width="68"/>
    <rect x="462" y="728" width="100" height="78" rx="28" fill="#2dd4bf"/>
    <circle cx="512" cy="777" r="25" fill="#0f172a"/>
    <path d="M512 806v74" fill="none" stroke="#2dd4bf" stroke-linecap="round" stroke-width="38"/>
    <rect x="438" y="864" width="148" height="54" rx="27" fill="#2dd4bf"/>
  </g>
</svg>
